<?xml version="1.0" standalone="no"?>
<!DOCTYPE svg PUBLIC "-//W3C//DTD SVG 20010904//EN"
 "http://www.w3.org/TR/2001/REC-SVG-20010904/DTD/svg10.dtd">
<svg version="1.0" xmlns="http://www.w3.org/2000/svg"
 width="700.000000pt" height="700.000000pt" viewBox="0 0 700.000000 700.000000"
 preserveAspectRatio="xMidYMid meet">
<metadata>
Created by potrace 1.11, written by Peter Selinger 2001-2013
</metadata>
<g transform="translate(0.000000,700.000000) scale(0.100000,-0.100000)"
fill="#000000" stroke="none">
<path d="M3299 6965 c-14 -18 -324 -499 -639 -990 -226 -352 -326 -507 -505
-785 -98 -151 -188 -291 -201 -312 l-23 -36 121 -78 c95 -61 122 -74 129 -63
4 8 87 136 183 284 96 149 218 338 271 420 468 731 789 1226 796 1231 5 2 13
-6 20 -18 7 -13 68 -108 136 -211 68 -103 123 -192 123 -197 0 -6 5 -10 10
-10 6 0 10 -4 10 -9 0 -4 26 -48 59 -97 32 -49 242 -372 466 -719 225 -346
441 -681 481 -742 l73 -113 -1466 0 -1467 0 -61 -31 -60 -32 -190 -296 c-104
-163 -221 -345 -260 -406 -97 -150 -668 -1041 -760 -1185 l-23 -36 62 -110 61
-109 2850 0 2850 0 0 138 c0 76 -3 141 -8 144 -4 3 -1227 5 -2718 5 -1490 0
-2709 2 -2709 4 0 3 8 17 19 32 19 28 30 45 226 352 65 102 142 221 170 265
29 44 145 226 260 405 280 439 313 489 344 535 l26 39 1559 1 1559 0 17 30 c9
17 36 66 60 111 l43 80 -165 255 c-91 140 -194 299 -230 354 -36 55 -141 217
-233 360 -93 143 -205 316 -249 385 -45 69 -113 173 -151 233 -39 59 -106 163
-150 230 -112 173 -271 418 -375 578 l-88 136 -119 -1 c-108 0 -121 -2 -134
-21z"/>
<path d="M1807 1404 c-1 -2 -14 -5 -27 -7 -89 -17 -190 -66 -242 -118 -79 -80
-118 -176 -114 -279 3 -88 28 -157 79 -217 55 -66 121 -106 292 -178 224 -94
260 -120 258 -190 -2 -83 -79 -131 -197 -122 -91 7 -153 28 -242 83 -72 44
-94 52 -94 35 0 -5 -6 -16 -13 -23 -32 -34 -140 -169 -136 -171 2 -2 24 -19
49 -38 126 -98 272 -147 441 -147 299 -1 505 175 501 428 -1 75 -19 133 -61
193 -55 80 -106 111 -314 197 -231 94 -258 112 -259 178 -1 77 52 115 166 118
78 1 156 -22 224 -67 24 -16 47 -29 52 -29 10 0 150 174 150 186 0 13 -96 82
-153 111 -75 37 -183 61 -275 61 -45 -1 -83 -2 -85 -4z"/>
<path d="M390 1280 c-47 -155 -90 -290 -105 -335 -8 -22 -68 -215 -135 -430
-66 -214 -125 -400 -130 -413 -21 -48 -20 -49 140 -49 l150 1 14 45 c7 25 26
97 42 159 l29 112 204 -2 205 -3 41 -155 40 -155 158 -1 c86 0 157 3 157 7 0
4 -50 166 -111 361 -176 561 -226 718 -232 738 -3 8 -20 61 -37 118 -18 56
-35 103 -39 103 -3 1 -85 2 -182 3 l-177 1 -32 -105z m280 -395 c35 -137 65
-257 67 -265 3 -13 -17 -15 -137 -15 l-142 0 7 30 c3 16 8 37 11 45 2 8 24 98
49 200 67 269 67 272 75 263 4 -4 35 -120 70 -258z"/>
<path d="M2696 726 c1 -364 2 -664 3 -667 0 -3 67 -5 149 -5 l147 1 2 215 c1
118 2 220 2 226 1 6 35 10 94 10 88 -1 206 7 256 18 90 20 184 69 242 128 168
170 145 516 -43 640 -49 33 -125 65 -173 73 -11 2 -38 7 -60 11 -22 3 -171 7
-330 8 l-291 2 2 -660z m589 405 c22 -8 52 -22 67 -33 65 -45 77 -192 22 -266
-37 -49 -50 -58 -103 -73 -55 -16 -271 -19 -272 -4 0 5 -2 96 -2 201 l-2 191
125 -1 c73 -1 142 -8 165 -15z"/>
<path d="M4044 1381 c-2 -2 -4 -302 -4 -666 l0 -661 150 0 150 0 0 50 c4 418
0 1269 -5 1274 -7 8 -284 10 -291 3z"/>
<path d="M4762 721 l3 -666 147 0 148 -1 2 240 3 240 74 0 c41 1 80 -3 87 -9
6 -5 29 -41 49 -80 21 -38 54 -101 75 -140 21 -38 57 -106 80 -150 24 -44 46
-85 51 -91 11 -13 335 -12 332 2 -1 5 -44 83 -96 174 -52 91 -106 188 -122
215 -15 28 -38 69 -52 92 -24 41 -24 41 -4 48 37 12 122 86 151 132 43 67 63
138 65 228 6 223 -100 358 -325 410 -61 14 -129 18 -373 19 l-297 2 2 -665z
m577 410 c63 -18 107 -65 116 -124 15 -96 -19 -165 -99 -206 -43 -22 -60 -25
-170 -25 l-121 -1 -3 174 c-2 96 -1 179 2 186 6 16 214 13 275 -4z"/>
<path d="M6126 1380 c-1 -3 -2 -302 -1 -665 l1 -660 423 0 c352 0 424 2 429
14 4 12 6 124 3 213 l-1 28 -276 2 -277 3 0 143 c1 79 3 145 6 148 3 3 104 5
226 5 164 0 221 3 222 12 3 46 0 227 -4 233 -3 5 -105 9 -226 8 -122 0 -221 4
-222 8 0 4 0 53 0 108 0 55 0 111 0 125 l1 25 265 0 265 0 1 23 c1 27 1 184 0
212 -1 20 -8 20 -417 20 -229 0 -417 -2 -418 -5z"/>
</g>
</svg>
