<svg xmlns="http://www.w3.org/2000/svg" width="24" height="24" viewBox="0 0 24 24">
    <path fill="#666" fill-rule="nonzero" d="M19.653 11.798a1.1 1.1 0 0 0 .29-1.151 1.134 1.134 0 0 0-.927-.764l-3.874-.551a.505.505 0 0 1-.38-.271l-1.733-3.435A1.143 1.143 0 0 0 12 5c-.44 0-.834.24-1.029.626L9.24 9.06a.506.506 0 0 1-.381.271l-3.874.55c-.436.063-.79.355-.927.765a1.1 1.1 0 0 0 .29 1.151l2.803 2.674a.49.49 0 0 1 .146.439l-.66 3.775c-.06.332.03.655.25.91.34.397.937.518 1.414.273l3.464-1.782a.529.529 0 0 1 .472 0l3.465 1.782a1.155 1.155 0 0 0 1.414-.273c.22-.255.309-.579.25-.91l-.661-3.775a.49.49 0 0 1 .146-.44l2.803-2.673z"/>
</svg>
