<svg xmlns="http://www.w3.org/2000/svg" width="48" height="48" viewBox="0 0 48 48">
    <g fill="#A1A1A1" fill-rule="nonzero">
        <path d="M36.485 15.686a11.545 11.545 0 0 0-3.606-6.62 11.53 11.53 0 0 0-7.803-3.033c-2.234 0-4.41.641-6.275 1.85a11.526 11.526 0 0 0-3.754 3.955 6.621 6.621 0 0 0-1.215-.115c-3.491 0-6.333 2.845-6.333 6.339 0 .452.05.888.131 1.316A8.824 8.824 0 0 0 4 26.49c0 2.277.846 4.49 2.39 6.24 1.585 1.793 3.68 2.854 5.914 2.977h7.129c.616 0 1.11-.493 1.11-1.11 0-.617-.494-1.11-1.11-1.11h-7.03c-3.36-.206-6.185-3.404-6.185-7.005a6.591 6.591 0 0 1 3.26-5.674 1.12 1.12 0 0 0 .485-1.348 4.032 4.032 0 0 1-.246-1.414c0-2.27 1.848-4.12 4.115-4.12.484 0 .96.082 1.404.247a1.114 1.114 0 0 0 1.388-.567 9.383 9.383 0 0 1 8.46-5.37 9.307 9.307 0 0 1 9.306 8.453c.05.501.427.904.92.987 3.655.624 6.415 4.004 6.415 7.86 0 4.086-3.212 7.638-7.17 7.943H28.5c-.616 0-1.109.493-1.109 1.11 0 .616.493 1.11 1.109 1.11H34.678c2.505-.181 4.846-1.332 6.587-3.256a10.245 10.245 0 0 0 2.678-6.907c-.009-4.613-3.154-8.716-7.458-9.85z"/>
        <path d="M30.628 27.542a1.107 1.107 0 0 0 0-1.57l-5.872-5.88a1.087 1.087 0 0 0-1.56 0l-5.874 5.88a1.115 1.115 0 1 0 .78 1.9c.28 0 .567-.108.781-.33l3.984-3.988v18.328c0 .616.492 1.11 1.108 1.11.616 0 1.11-.494 1.11-1.11V23.554l3.983 3.988a1.095 1.095 0 0 0 1.56 0z"/>
    </g>
</svg>
