<?xml version="1.0" encoding="UTF-8"?>
<svg width="60px" height="60px" viewBox="0 0 60 60" version="1.1" xmlns="http://www.w3.org/2000/svg" xmlns:xlink="http://www.w3.org/1999/xlink">
    <!-- Generator: sketchtool 51.2 (57519) - http://www.bohemiancoding.com/sketch -->
    <title>053FB180-5F02-4F20-9027-FDD19D53F522</title>
    <desc>Created with sketchtool.</desc>
    <defs></defs>
    <g id="Symbols" stroke="none" stroke-width="1" fill="none" fill-rule="evenodd">
        <g id="ASPIRE_logo" fill="#000000" fill-rule="nonzero">
            <g id="Shape">
                <path d="M6.88141593,56.8281938 L3.38230088,56.8281938 L2.67876106,59.5400881 L0.0424778761,59.5400881 L3.62920354,48.1321586 L6.74070796,48.1321586 L10.3247788,59.5400881 L7.58230088,59.5400881 L6.88141593,56.8281938 Z M6.35044248,54.8167401 L6.08495575,53.7594714 C5.92035398,53.1885463 5.7619469,52.5814978 5.60973451,51.938326 C5.45840708,51.2986784 5.30442478,50.6801762 5.15309735,50.0881057 L5.08141593,50.0881057 C4.93982301,50.6942731 4.79646018,51.3154185 4.65132743,51.9515419 C4.50530973,52.5859031 4.35132743,53.1911894 4.18672566,53.7621145 L3.90530973,54.8193833 L6.35044248,54.8167401 Z"></path>
                <path d="M13.1893805,56.3339207 C13.6001836,56.6823635 14.0587785,56.9707264 14.5513274,57.1903084 C15.0114467,57.4037255 15.5119032,57.5172512 16.019469,57.523348 C16.4425976,57.554332 16.8646719,57.4506666 17.2247788,57.2273128 C17.4818543,57.0400281 17.6290156,56.7380925 17.6176991,56.4211454 C17.6222851,56.2620435 17.582789,56.1047553 17.5035398,55.9665198 C17.4209198,55.8288223 17.3073181,55.7121017 17.1716814,55.6255507 C17.0040754,55.5155044 16.8262733,55.4216844 16.640708,55.3453744 L15.9637168,55.0572687 L14.4716814,54.4255507 C14.1706478,54.3060949 13.8839226,54.1536121 13.6168142,53.9709251 C13.3430257,53.7855434 13.094885,53.5651556 12.8787611,53.3154185 C12.6578937,53.054927 12.4828599,52.7591272 12.3610619,52.4405286 C12.2277043,52.0792756 12.1620161,51.6967377 12.1672566,51.3118943 C12.165559,50.8544442 12.2681338,50.4025729 12.4672566,49.9903084 C12.6684182,49.5736304 12.9561843,49.2042457 13.3115044,48.9066079 C13.6923912,48.586459 14.1299806,48.3399426 14.6017699,48.1797357 C15.1305365,47.999477 15.6862527,47.9100961 16.2451327,47.9154185 C16.9229079,47.9167676 17.5942011,48.0468464 18.2230088,48.2986784 C18.8669829,48.5526685 19.4509853,48.9369881 19.9380531,49.4273128 L18.6106195,51.0555066 C18.267644,50.7813268 17.8889891,50.5546012 17.4849558,50.3814978 C17.0894969,50.2189005 16.6649858,50.1379692 16.2371681,50.1436123 C15.8645599,50.123575 15.4945221,50.2156769 15.1752212,50.4079295 C14.9173835,50.5741337 14.7669548,50.8636142 14.779646,51.169163 C14.7747809,51.3279724 14.8202987,51.4842709 14.9097345,51.615859 C15.0105349,51.7490595 15.1357475,51.8620615 15.2787611,51.9488987 C15.4559141,52.0561244 15.6414726,52.1489369 15.8336283,52.2264317 L16.5185841,52.5171806 L17.9946903,53.1118943 C18.638407,53.3497764 19.2104566,53.7473554 19.6566372,54.2669604 C20.0823403,54.8231387 20.2967524,55.5112909 20.2619469,56.2096916 C20.2688765,57.1604186 19.854046,58.0657367 19.1283186,58.6837004 C18.7348423,59.027444 18.2800698,59.2946226 17.7876106,59.4713656 C17.1997529,59.6705397 16.5819692,59.7679841 15.9610619,59.7594714 C15.1953787,59.756787 14.4364123,59.6171221 13.720354,59.3471366 C12.9779606,59.0753896 12.2987432,58.6563457 11.7238938,58.1154185 L13.1893805,56.3339207 Z"></path>
                <path d="M23.0973451,48.1268722 L27.2814159,48.1268722 C27.8688504,48.1229906 28.4548519,48.1850566 29.0283186,48.3118943 C29.5388561,48.4187469 30.0227151,48.6263571 30.4513274,48.922467 C30.8627279,49.2150704 31.1925511,49.6071135 31.4097345,50.061674 C31.8858076,51.1708708 31.8858076,52.4256049 31.4097345,53.5348018 C31.1829051,54.0061481 30.8493931,54.4187135 30.4353982,54.7400881 C30.0103546,55.0634963 29.5261213,55.3014041 29.0097345,55.4405286 C28.4497271,55.5957563 27.8706704,55.6722678 27.2893805,55.6678414 L25.6964602,55.6678414 L25.6964602,59.5348018 L23.0973451,59.5348018 L23.0973451,48.1268722 Z M27.1221239,53.6220264 C28.5292035,53.6220264 29.2318584,53.014978 29.2300885,51.8008811 C29.2300885,51.2070485 29.0530973,50.7876652 28.699115,50.5427313 C28.2236868,50.2671053 27.6763928,50.1391682 27.1274336,50.1753304 L25.6858407,50.1753304 L25.6858407,53.6114537 L27.1221239,53.6220264 Z"></path>
                <polygon points="34.6327434 48.1268722 37.2159292 48.1268722 37.2159292 59.5348018 34.6327434 59.5348018"></polygon>
                <path d="M47.0044248,59.5348018 L44.8088496,55.4246696 L43.3831858,55.4246696 L43.3831858,59.5348018 L40.8,59.5348018 L40.8,48.1268722 L44.9309735,48.1268722 C45.5064189,48.1233653 46.0805564,48.1818554 46.6433628,48.3013216 C47.1484293,48.4053458 47.6276497,48.6084093 48.0530973,48.8986784 C48.4559434,49.1788155 48.7818084,49.5550447 49.000885,49.9929515 C49.251833,50.5227918 49.3728503,51.1043773 49.3539823,51.6898678 C49.3837695,52.4205874 49.1903021,53.1431246 48.799115,53.7621145 C48.4330813,54.3025216 47.9176055,54.7257551 47.3150442,54.9806167 L49.9115044,59.5348018 L47.0044248,59.5348018 Z M43.3831858,53.3762115 L44.7106195,53.3762115 C45.2630232,53.4137689 45.8117846,53.2627319 46.2663717,52.9480176 C46.6352351,52.6327272 46.8322119,52.1620654 46.7973451,51.6792952 C46.7973451,51.1189427 46.620354,50.7277533 46.2663717,50.5057269 C45.7873231,50.2575991 45.2496682,50.1434168 44.7106195,50.1753304 L43.3831858,50.1753304 L43.3831858,53.3762115 Z"></path>
                <polygon points="52.5053097 48.1268722 59.6734513 48.1268722 59.6734513 50.2969163 55.0884956 50.2969163 55.0884956 52.5991189 58.9911504 52.5991189 58.9911504 54.7506608 55.0884956 54.7506608 55.0884956 57.3568282 59.8513274 57.3568282 59.8513274 59.5268722 52.5053097 59.5268722"></polygon>
                <polygon points="54.3769912 40.1550661 5.51946903 40.1550661 4.48141593 38.2704846 15.0265487 21.8220264 16.0619469 21.2563877 41.2221239 21.2563877 29.4238938 3.04757709 18.6185841 19.8185022 16.5477876 18.4942731 28.3858407 0.121585903 30.4539823 0.118942731 44.5141593 21.8167401 43.4814159 23.7066079 16.7389381 23.7066079 7.76283186 37.7048458 54.3769912 37.7048458"></polygon>
            </g>
        </g>
    </g>
</svg>